<svg width="25" height="25" viewBox="0 0 25 25" fill="none" xmlns="http://www.w3.org/2000/svg">
<g clip-path="url(#clip0_124_2)">
<g clip-path="url(#clip1_124_2)">
<path d="M24.9999 11.625V13.43C24.8998 13.7737 24.9056 14.1327 24.8463 14.4825C24.4094 17.058 23.3043 19.3 21.4839 21.1775C19.5904 23.131 17.3014 24.3451 14.617 24.8197C14.2194 24.8905 13.8118 24.8902 13.421 25H11.4667C11.3416 24.906 11.1868 24.931 11.0471 24.9145C8.74532 24.6427 6.65442 23.8295 4.85025 22.3777C1.16033 19.4087 -0.448691 15.5357 0.107248 10.8405C0.478792 7.70225 1.93669 5.073 4.35585 3.032C7.61843 0.279247 11.3741 -0.586502 15.5202 0.383498C18.101 0.987248 20.2457 2.3585 21.977 4.3665C23.4782 6.1075 24.4237 8.1115 24.8135 10.3785C24.8848 10.792 24.9384 11.2085 24.9999 11.625ZM12.5283 20.016C12.7522 20.037 13.0174 19.9777 13.2859 19.9692C13.3184 19.9683 13.3508 19.9657 13.383 19.9612C15.2407 19.7012 16.7924 18.8762 18.0151 17.4495C18.5931 16.7736 19.0385 15.9949 19.3279 15.1542C19.4953 14.6742 19.2811 14.2042 18.8275 14.0335C18.3739 13.8627 17.9173 14.0772 17.7199 14.5555C17.6981 14.608 17.6811 14.6625 17.6609 14.7157C16.5402 17.6697 13.2459 19.0942 10.3433 17.864C8.88293 17.2447 7.87739 16.1717 7.31594 14.689C7.09402 14.102 6.64942 13.846 6.15302 14.0352C5.66264 14.222 5.48525 14.7065 5.69992 15.2727C6.78703 18.1405 9.46339 20.0125 12.5283 20.016ZM16.6336 11.091C16.8497 11.0922 17.064 11.0508 17.2641 10.9691C17.4642 10.8874 17.6461 10.7671 17.7996 10.6149C17.953 10.4628 18.0748 10.2819 18.1581 10.0826C18.2414 9.88326 18.2845 9.66948 18.2849 9.4535C18.2849 8.562 17.5458 7.81975 16.6528 7.81625C15.7373 7.8125 14.9948 8.54125 14.9898 9.44575C14.9886 9.66189 15.0303 9.87611 15.1125 10.0761C15.1946 10.276 15.3156 10.4577 15.4685 10.6106C15.6213 10.7636 15.803 10.8848 16.0029 10.9672C16.2029 11.0496 16.4172 11.0916 16.6336 11.0907V11.091ZM8.34325 11.091C9.26123 11.091 9.99456 10.366 9.99456 9.4545C9.99456 8.55225 9.25047 7.81475 8.34025 7.81625C7.44429 7.8175 6.70921 8.54775 6.69996 9.44475C6.6912 10.3452 7.43429 11.09 8.34325 11.0907V11.091Z" fill="#9A86F3"/>
</g>
</g>
<defs>
<clipPath id="clip0_124_2">
<rect width="25" height="25" fill="white"/>
</clipPath>
<clipPath id="clip1_124_2">
<rect width="25" height="25" fill="white"/>
</clipPath>
</defs>
</svg>
