<svg width="25" height="25" viewBox="0 0 25 25" fill="none" xmlns="http://www.w3.org/2000/svg">
<g clip-path="url(#clip0_124_2)">
<path d="M12.5259 0C13.0711 0.01425 13.4075 0.2875 13.6495 0.719C14.5285 2.28567 15.4116 3.85083 16.2988 5.4145C17.3221 7.2255 18.3455 9.03625 19.3691 10.8467C19.4122 10.9217 19.4886 10.9967 19.4907 11.0747C19.4955 11.2547 19.5302 11.4997 19.4294 11.5985C19.3286 11.6972 19.0466 11.725 18.8978 11.6622C18.3181 11.4172 17.7596 11.1242 17.1934 10.8485C15.8627 10.2 14.5285 9.55775 13.2029 8.9C12.749 8.675 12.331 8.675 11.8726 8.9C10.0215 9.8145 8.16046 10.71 6.30478 11.6155C6.0758 11.7272 5.84606 11.828 5.63067 11.6195C5.39989 11.3967 5.51938 11.1682 5.64887 10.9392C7.57404 7.53692 9.49715 4.1335 11.4182 0.729C11.6672 0.285 12.009 0.007 12.5259 0Z" fill="white"/>
<path d="M12.3723 25C12.1505 25.0045 11.8241 24.8522 11.6007 24.5412C9.65866 21.8361 7.71922 19.1285 5.78243 16.4185C5.65627 16.2435 5.60832 16.0625 5.75269 15.88C5.89705 15.6975 6.08449 15.669 6.3168 15.745C8.22735 16.37 10.1423 16.9822 12.0518 17.61C12.3659 17.7193 12.7092 17.7193 13.0233 17.61C14.9022 16.9917 16.7834 16.3807 18.667 15.777C18.8293 15.7252 19.0493 15.7175 19.1988 15.7835C19.4552 15.8972 19.4681 16.1635 19.2637 16.4505C18.4774 17.5535 17.6895 18.6549 16.9001 19.7547C15.7811 21.3182 14.6626 22.8816 13.5446 24.4447C13.2997 24.7882 12.9854 24.9927 12.3723 25Z" fill="white"/>
<path d="M18.2848 13.7185C17.3555 14.0185 16.4642 14.308 15.5724 14.598C14.6475 14.898 13.7247 15.206 12.797 15.498C12.6585 15.5417 12.4831 15.5642 12.35 15.523C10.549 14.948 8.75255 14.3595 6.95533 13.773C6.90775 13.7528 6.86166 13.7294 6.81738 13.703C6.90149 13.653 6.97123 13.6075 7.04611 13.571C8.79255 12.7185 10.5375 11.8635 12.2895 11.0225C12.4162 10.9617 12.6229 10.9475 12.7442 11.0052C14.527 11.859 16.3019 12.7285 18.0776 13.5952C18.1363 13.623 18.1894 13.6607 18.2848 13.7185Z" fill="white"/>
</g>
<defs>
<clipPath id="clip0_124_2">
<rect width="14" height="25" fill="white" transform="translate(5.5)"/>
</clipPath>
</defs>
</svg>
