<svg width="25" height="25" viewBox="0 0 25 25" fill="none" xmlns="http://www.w3.org/2000/svg">
<g clip-path="url(#clip0_124_2)">
<path d="M16.3421 9.99275C20.619 10.0213 24.0272 13.3958 24 17.575C23.9744 21.678 20.5002 25.023 16.3017 24.9885C12.0207 24.9535 8.64202 21.5863 8.67504 17.3885C8.70705 13.3263 12.193 9.965 16.3421 9.99275ZM17.61 18.0943L17.7362 18.01C17.8114 18.1235 17.8685 18.2548 17.9648 18.3473C18.5048 18.8655 19.2759 18.877 19.7867 18.3853C20.3056 17.8853 20.3005 17.115 19.7611 16.58C18.9338 15.761 18.1017 14.947 17.2648 14.138C16.708 13.6013 15.9576 13.609 15.3995 14.1503C14.571 14.9538 13.746 15.7608 12.9245 16.5715C12.3807 17.1075 12.3592 17.8715 12.8654 18.3775C13.3856 18.896 14.1608 18.8775 14.7325 18.3335C14.8255 18.2448 14.9207 18.1585 15.072 18.017C15.072 18.7708 15.0546 19.433 15.0771 20.094C15.0992 20.737 15.6568 21.2303 16.3209 21.237C17.0004 21.2438 17.5598 20.751 17.601 20.0988C17.6156 19.8738 17.6087 19.6488 17.6092 19.4258C17.6107 18.982 17.61 18.538 17.61 18.0943V18.0943Z" fill="#9A86F3"/>
<path d="M18.8939 1.31025C18.8914 0.5 18.3519 0.00525 17.4971 0.005C13.3265 0.00333333 9.15594 0.00166667 4.98551 0C4.41151 0 4.00162 0.217 3.68901 0.685C2.92556 1.82833 2.15092 2.9645 1.3651 4.0935C1.12492 4.43057 0.999514 4.83292 1.00667 5.2435C1.01418 11.3355 1.01196 17.4276 1.00001 23.5197C0.996941 24.35 1.51411 25.0105 2.5085 25C5.44148 24.9685 8.37524 24.9888 11.3085 24.9888H11.6208C9.71885 23.7273 8.39496 22.0722 7.75977 19.9242C7.11971 17.762 7.32453 15.66 8.31508 13.63C9.88475 10.4148 14.0013 7.7855 18.8811 9.09C18.8875 9.02175 18.896 8.9735 18.8962 8.9255C18.8967 6.387 18.9006 3.8485 18.8939 1.31025Z" fill="#9A86F3"/>
</g>
<defs>
<clipPath id="clip0_124_2">
<rect width="23" height="25" fill="white" transform="translate(1)"/>
</clipPath>
</defs>
</svg>
