<svg width="25" height="25" viewBox="0 0 25 25" fill="none" xmlns="http://www.w3.org/2000/svg">
<g clip-path="url(#clip0_124_2)">
<path d="M20.3541 14.3092C21.125 15.0746 21.8961 15.84 22.6674 16.6055C22.7856 16.7232 22.8712 16.6625 22.963 16.5712C23.2385 16.2977 23.5159 16.0262 23.7952 15.7565C23.835 15.718 23.8971 15.662 23.9364 15.6705C24.0215 15.689 23.996 15.7787 23.996 15.842C23.996 17.159 23.9922 18.4757 24.0014 19.792C24.0029 20.0232 23.8836 20.0302 23.7081 20.03C22.5912 20.028 21.4743 20.0322 20.3574 20.0345H19.4416L20.3651 19.0967C20.6413 18.8662 20.6413 18.8577 20.3699 18.6927C19.8259 18.1112 19.2503 17.5605 18.668 17.0162L17.6118 15.9812C17.4306 15.7967 17.2565 15.6045 17.0654 15.4312C16.9396 15.3167 16.9579 15.2452 17.0723 15.1365C17.3707 14.852 17.6569 14.5552 17.9479 14.2635L19.0089 13.222C19.1389 13.103 19.2128 13.2095 19.2941 13.2892C19.6468 13.6297 20.0001 13.9697 20.3541 14.3092Z" fill="#816BE1"/>
<path d="M10.6236 18.8127C10.646 18.2175 10.6475 17.6225 10.6236 17.0275C10.6485 16.6802 10.6485 16.3316 10.6236 15.9842C10.6284 15.6865 10.6358 15.3887 10.6371 15.091C10.6371 14.9737 10.6462 14.889 10.8052 14.891C12.2363 14.8972 13.6674 14.8982 15.0984 14.9017C15.104 14.9017 15.1094 14.9142 15.1295 14.9385L14.099 15.9825C13.9956 16.066 14.0868 16.1167 14.137 16.1652C14.4354 16.4555 14.7369 16.7427 15.0373 17.0307L16.8618 18.8232C17.0356 18.9995 17.1951 19.1925 17.3865 19.3482C17.6178 19.536 17.6938 19.7052 17.4247 19.9122C16.8429 20.4785 16.2548 21.0387 15.6838 21.615C15.5194 21.7807 15.4277 21.7675 15.2697 21.6095C14.6963 21.036 14.1077 20.4772 13.5249 19.9127C13.4658 19.8187 13.3848 19.7398 13.2887 19.6822C13.015 19.3745 12.7205 19.0851 12.4073 18.816C12.248 18.652 12.0865 18.491 11.9305 18.3235C11.8497 18.2367 11.7832 18.221 11.6948 18.317C11.5396 18.485 11.376 18.6455 11.2163 18.809L11.16 18.864L10.659 19.3205C10.6439 19.2065 10.6335 19.1257 10.623 19.0455C10.623 18.9675 10.6232 18.8899 10.6236 18.8127Z" fill="#816BE1"/>
<path d="M18.5854 4.54999C18.7663 4.83749 19.0402 5.04274 19.2673 5.28949C19.6192 5.67149 20.0409 5.98824 20.3536 6.40724C18.6887 6.40724 17.0239 6.40724 15.3591 6.40724C15.1221 6.40724 14.889 6.38374 14.6711 6.29949C14.136 6.09299 13.8812 5.71249 13.8812 5.14224C13.8812 3.54774 13.8812 1.95332 13.8812 0.35899C13.8812 0.25774 13.8442 0.14524 13.9385 0.0589905C14.1966 0.32024 14.4514 0.58399 14.7131 0.84174C15.8875 1.99491 17.062 3.14766 18.2365 4.29999C18.3371 4.40258 18.4552 4.48718 18.5854 4.54999Z" fill="#816BE1"/>
<path d="M11.6953 18.3168C11.5402 18.4848 11.3766 18.6453 11.2168 18.8088L12.3533 18.8145C12.3716 18.8145 12.3897 18.8145 12.4078 18.8145C12.2486 18.6505 12.087 18.4895 11.9311 18.322C11.8503 18.2365 11.7838 18.2208 11.6953 18.3168Z" fill="#9A86F3"/>
<path d="M20.3694 18.6933C19.8254 18.1118 19.2497 17.561 18.6675 17.0168L15.0373 17.0308L16.8618 18.8233C17.4675 18.8205 18.0735 18.8205 18.6794 18.813C18.8652 18.8108 18.9355 18.8833 18.9447 19.0675C18.986 19.9113 18.9903 19.911 18.1293 19.911C17.8948 19.911 17.6602 19.911 17.4257 19.911C16.844 20.4773 16.2558 21.0375 15.6848 21.6138C15.5204 21.7795 15.4287 21.7663 15.2707 21.6083C14.6974 21.0348 14.1087 20.476 13.526 19.9115C11.7436 19.9115 9.96104 19.9115 8.17833 19.9115C6.39561 19.9115 4.61315 19.9132 2.83094 19.9165C2.55701 19.9165 2.45737 19.8573 2.464 19.5708C2.48184 18.8148 2.46833 18.8148 3.24961 18.8145L10.6246 18.8128C10.647 18.2175 10.6485 17.6225 10.6246 17.0275C9.32705 17.0275 8.0296 17.0268 6.73223 17.0255C5.43486 17.0242 4.13731 17.0264 2.8396 17.0323C2.54147 17.0335 2.45508 16.9573 2.46451 16.6643C2.48617 15.987 2.47037 15.9868 3.16297 15.9865L10.6248 15.9843C10.6297 15.6865 10.6371 15.3888 10.6384 15.091C10.6384 14.9738 10.6475 14.889 10.8065 14.891C12.2376 14.8973 13.6687 14.8983 15.0997 14.9018C15.1053 14.9018 15.1107 14.9143 15.1308 14.9385L14.0991 15.9825H17.6112C17.4301 15.798 17.256 15.6058 17.0649 15.4325C16.939 15.318 16.9574 15.2465 17.0718 15.1378C17.3702 14.8533 17.6563 14.5565 17.9473 14.2648C17.9368 14.2541 17.9254 14.2444 17.9132 14.2358C17.8855 14.2157 17.8534 14.2022 17.8194 14.1965C17.743 14.183 17.6619 14.2013 17.5857 14.2013C12.6762 14.1988 7.76628 14.198 2.85591 14.199C2.47037 14.199 2.47037 14.199 2.46986 13.8265C2.46986 13.1015 2.46986 13.1015 3.20374 13.1015H18.5803C18.735 13.1015 18.8976 13.073 19.0084 13.222C19.1384 13.103 19.2123 13.2095 19.2935 13.2893C19.6462 13.6299 19.9996 13.9701 20.3536 14.3098C20.3572 13.1175 20.3638 11.9253 20.3635 10.733C20.3635 9.29101 20.3572 7.84876 20.3536 6.40651C18.6888 6.40651 17.024 6.40651 15.3591 6.40651C15.1222 6.40651 14.889 6.38301 14.6711 6.29876C14.136 6.09226 13.8812 5.71176 13.8812 5.14151C13.8812 3.54701 13.8812 1.95259 13.8812 0.358256C13.8812 0.257006 13.8442 0.144506 13.9385 0.0582559C13.9385 0.0387559 13.9385 0.0192559 13.9385 -0.000244141H1.82262C1.8058 0.0330059 1.79714 0.0847559 1.77166 0.0960059C1.18226 0.346006 1.00592 0.841756 1.00541 1.40576C0.999298 8.79809 0.998364 16.1904 1.00261 23.5828C1.00261 24.3153 1.33031 24.7828 1.92837 24.9578C2.04533 24.992 2.16026 24.9895 2.27696 24.9898C4.06987 24.9913 5.86295 24.9923 7.6562 24.9928C10.2615 24.9948 12.8667 24.9968 15.4718 24.9988C16.6766 24.9988 17.8811 25.0033 19.0859 24.9968C19.8542 24.993 20.36 24.5008 20.3635 23.7538C20.3676 22.5145 20.3597 21.275 20.3569 20.0355H19.4411L20.3646 19.0978C20.3661 18.9628 20.3677 18.8279 20.3694 18.6933ZM18.9483 10.6183C18.9302 11.311 18.9437 11.3113 18.2348 11.3113H2.85413C2.47037 11.3113 2.47037 11.3113 2.46986 10.9363C2.46986 10.272 2.46986 10.272 3.14692 10.272H10.7051C13.3323 10.272 15.9595 10.276 18.5867 10.266C18.868 10.2658 18.9554 10.339 18.9483 10.6188V10.6183ZM18.5579 7.38751C18.9401 7.38751 18.9401 7.38751 18.9416 7.76251C18.9416 8.48376 18.9416 8.48376 18.205 8.48376H10.7059C8.07869 8.48376 5.4515 8.47976 2.82431 8.48976C2.54401 8.48976 2.45687 8.41651 2.46324 8.13751C2.48031 7.38751 2.46757 7.38751 3.23585 7.38751H18.5579ZM2.43266 4.12251C2.41431 3.91426 2.50222 3.86751 2.70149 3.86826C4.36623 3.87526 6.03122 3.87226 7.69595 3.87226C8.88086 3.87226 10.0658 3.87701 11.2509 3.86776C11.4627 3.86601 11.5549 3.90976 11.5333 4.13551C11.5078 4.39201 11.6143 4.73251 11.4823 4.88851C11.3266 5.07201 10.9673 4.94676 10.6975 4.94826C10.0806 4.95226 9.46372 4.95376 8.84672 4.95276C8.22971 4.95176 7.61271 4.95176 6.99571 4.95276C6.28578 4.95276 5.57577 4.95276 4.86567 4.95276C4.15558 4.95276 3.44556 4.95459 2.73564 4.95826C2.51165 4.95976 2.40896 4.90826 2.43266 4.67201C2.44987 4.48923 2.44987 4.30528 2.43266 4.12251V4.12251ZM11.9119 22.739C8.88316 22.739 5.85412 22.7355 2.82533 22.745C2.54325 22.745 2.45737 22.6713 2.46451 22.3925C2.4826 21.7005 2.4691 21.7 3.178 21.7H7.58893C8.37819 21.7 9.16728 21.7005 9.9562 21.7015C10.7451 21.7025 11.5342 21.7002 12.3235 21.6945C12.5824 21.6925 12.6591 21.7618 12.6547 22.0178C12.6402 22.7388 12.6524 22.739 11.9107 22.739H11.9119Z" fill="#9A86F3"/>
</g>
<defs>
<clipPath id="clip0_124_2">
<rect width="23" height="25" fill="white" transform="translate(1)"/>
</clipPath>
</defs>
</svg>
