<svg width="25" height="25" viewBox="0 0 25 25" fill="none" xmlns="http://www.w3.org/2000/svg">
<g clip-path="url(#clip0_124_2)">
<g clip-path="url(#clip1_124_2)">
<path d="M25.0001 15.4807C24.8752 16.046 24.5111 16.4487 24.1137 16.8442C21.7254 19.2202 19.3442 21.6031 16.97 23.9927C16.6849 24.2802 16.3767 24.4445 15.9819 24.5072C15.059 24.654 14.1403 24.8267 13.2196 24.986C12.6398 25.086 12.1898 24.639 12.2892 24.0587C12.4592 23.0652 12.6219 22.0702 12.8178 21.082C12.8672 20.8461 12.9812 20.6287 13.1472 20.454C15.6578 17.9245 18.1767 15.4032 20.7039 12.89C20.9088 12.6815 21.1414 12.5023 21.3952 12.3575C22.0065 12.0207 22.6447 12.1127 23.1478 12.5942C23.6059 13.033 24.0742 13.4667 24.4846 13.9482C24.7127 14.2157 24.832 14.576 25.0001 14.8947V15.4807Z" fill="#9A86F3"/>
<path d="M9.22919 0C9.41512 0.05175 9.6053 0.09175 9.78624 0.157C10.6387 0.4655 11.23 1.04675 11.5479 1.895C11.6033 2.04275 11.6683 2.097 11.8245 2.09125C12.1329 2.07975 12.4425 2.08225 12.7514 2.08975C13.2138 2.10075 13.5289 2.41475 13.5354 2.878C13.5431 3.41475 13.5481 3.953 13.5319 4.4885C13.5212 4.95793 13.3276 5.40459 12.9923 5.73321C12.657 6.06183 12.2067 6.24638 11.7373 6.2475C9.81797 6.257 7.89866 6.257 5.97936 6.2475C4.98146 6.24275 4.20499 5.46625 4.16851 4.4475C4.14976 3.92775 4.15526 3.40625 4.16676 2.886C4.1775 2.40925 4.49939 2.09925 4.97397 2.09C5.2911 2.08375 5.60874 2.097 5.92538 2.082C5.99885 2.0785 6.10981 2.01225 6.1343 1.94825C6.5449 0.87875 7.30513 0.23725 8.43347 0.0345C8.45626 0.0263029 8.47767 0.0146685 8.49695 0L9.22919 0Z" fill="#9A86F3"/>
<path d="M14.5877 3.14449C14.9804 3.10638 15.3767 3.15045 15.7514 3.27389C16.1261 3.39733 16.471 3.59744 16.7642 3.86148C17.0574 4.12553 17.2925 4.44774 17.4544 4.8076C17.6163 5.16746 17.7016 5.55711 17.7049 5.95174C17.7323 8.23049 17.7136 10.5095 17.7084 12.7882C17.7038 12.8825 17.6658 12.972 17.6011 13.0407C16.4259 14.2241 15.2465 15.404 14.0629 16.5805C14.0064 16.6325 13.9332 16.6628 13.8565 16.6657C10.569 16.6686 7.28152 16.6686 3.99404 16.6657C3.5347 16.6657 3.19633 16.9352 3.13335 17.3357C3.10736 17.5147 3.14502 17.697 3.23975 17.851C3.33449 18.005 3.48027 18.1208 3.65166 18.1782C3.78661 18.2222 3.93906 18.2252 4.08376 18.2255C6.73664 18.228 9.38943 18.2286 12.0421 18.2272H12.3075C11.8775 18.7717 11.3516 19.2627 11.052 19.8662C10.7524 20.4697 10.6796 21.185 10.5007 21.8777H10.2723C7.83982 21.8777 5.40678 21.8777 2.97316 21.8777C1.24403 21.877 0.0019762 20.6375 0.00172629 18.9112C0.000726652 14.6057 0.000726652 10.3003 0.00172629 5.99499C0.00372557 4.30899 1.41972 3.00774 3.1256 3.14049C3.1256 3.56549 3.1256 3.99274 3.1256 4.42049C3.1271 5.06874 3.31903 5.65674 3.71789 6.16624C4.26444 6.86399 4.98393 7.27124 5.87511 7.27924C7.8604 7.29749 9.84618 7.30424 11.8315 7.27924C13.3629 7.25899 14.5572 5.99374 14.5855 4.42299C14.594 3.99999 14.5877 3.57849 14.5877 3.14449ZM8.86054 13.283C7.24262 13.283 5.62445 13.2795 4.00653 13.2885C3.82954 13.2895 3.65529 13.3324 3.49797 13.4135C3.19808 13.5757 3.06637 13.9385 3.15059 14.2517C3.19372 14.423 3.29333 14.5747 3.43333 14.6823C3.57333 14.7899 3.74553 14.8472 3.92206 14.8447C5.13338 14.849 6.34494 14.8465 7.55626 14.8465C9.60552 14.8465 11.6548 14.8472 13.704 14.8487C14.0004 14.8487 14.2498 14.7657 14.4288 14.5237C14.6077 14.2817 14.6415 14.0157 14.5085 13.7422C14.3586 13.4352 14.1086 13.2842 13.7655 13.2842L8.86054 13.283ZM8.83555 9.90124H4.2512C4.11325 9.90124 3.9743 9.89674 3.83685 9.90749C3.52221 9.93249 3.30779 10.1075 3.18708 10.3885C3.06637 10.6695 3.11611 10.9302 3.30554 11.1655C3.49497 11.4007 3.75288 11.4655 4.04377 11.4655C7.24712 11.463 10.4504 11.4621 13.6536 11.4627C13.7671 11.4652 13.8806 11.4539 13.9914 11.4292C14.2828 11.3555 14.4733 11.1647 14.5527 10.8765C14.6949 10.3597 14.3168 9.90399 13.739 9.90274C12.1049 9.89999 10.4707 9.90149 8.83655 9.90124H8.83555Z" fill="#9A86F3"/>
</g>
</g>
<defs>
<clipPath id="clip0_124_2">
<rect width="25" height="25" fill="white"/>
</clipPath>
<clipPath id="clip1_124_2">
<rect width="25" height="25" fill="white"/>
</clipPath>
</defs>
</svg>
