<svg width="25" height="25" viewBox="0 0 25 25" fill="none" xmlns="http://www.w3.org/2000/svg">
<g clip-path="url(#clip0_124_2)">
<path d="M17.3128 19.0792C16.8224 16.5162 14.351 14.7882 11.7476 15.1902C9.58972 15.5235 7.88779 17.3052 7.63859 19.4902C7.38567 21.7085 8.64531 23.838 10.7091 24.6402C11.1244 24.8032 11.5711 24.8827 12.002 25H12.9909C13.2021 24.9572 13.4148 24.9212 13.6243 24.871C16.2125 24.252 17.8197 21.7275 17.3128 19.0792ZM14.4865 19.6877C14.3128 19.8552 14.0983 19.8407 13.8908 19.6325C13.5781 19.3197 13.2721 19 12.898 18.7042V18.9705C12.898 20.0538 12.898 21.1367 12.898 22.2192C12.9011 22.3065 12.8992 22.3939 12.8921 22.481C12.8673 22.6945 12.735 22.8125 12.5299 22.8237C12.3363 22.8345 12.1941 22.7342 12.1445 22.5405C12.1197 22.4405 12.1197 22.3335 12.1197 22.2295C12.1182 21.06 12.1182 19.8906 12.1197 18.7212L12.0452 18.6792C11.7277 19.0105 11.4158 19.3475 11.0901 19.6707C10.9099 19.85 10.6942 19.843 10.5341 19.6822C10.381 19.5285 10.3852 19.3045 10.5448 19.1182C10.5617 19.0985 10.5806 19.0802 10.5989 19.0617C11.1261 18.5305 11.6518 17.9977 12.1812 17.469C12.4163 17.2345 12.6032 17.2285 12.8332 17.4577C13.375 17.9971 13.914 18.5403 14.4503 19.0875C14.6489 19.2895 14.6553 19.525 14.4865 19.6877Z" fill="#9A86F3"/>
<path d="M21.7839 4.25602C21.2994 3.77577 20.8159 3.29327 20.3411 2.80402L19.1137 1.55327C19.003 1.45027 18.94 1.39502 18.8812 1.33577C18.5002 0.953515 18.1286 0.560765 17.7342 0.193515C17.6253 0.0920152 17.4498 0.0085152 17.3043 0.0082652C12.9333 -0.00140147 8.56211 -0.0034848 4.19074 0.0020152C3.55907 0.0025152 3.085 0.438015 3.01302 1.05002L3.01053 5.08352L3.0011 20.2835C3.0011 20.518 2.99862 20.71 3.0011 20.902C3.01178 21.6063 3.50198 22.1098 4.19819 22.116C5.00485 22.1233 5.81151 22.1193 6.61793 22.116H7.22379C6.89257 21.2521 6.77452 20.32 6.87978 19.4C7.16745 16.8678 9.13844 14.8035 11.6393 14.4175C14.6535 13.9518 17.5183 15.9538 18.0864 18.923C18.2947 19.9921 18.201 21.0986 17.8159 22.1168H18.4322C19.2128 22.1185 19.9934 22.121 20.774 22.1168C21.5054 22.1123 21.9956 21.6168 21.9959 20.8778C21.9974 15.5063 21.9988 10.1348 22.0001 4.76327C22.0004 4.55227 21.9291 4.40002 21.7839 4.25602ZM13.3698 12.8338C11.5688 12.8348 9.7678 12.8348 7.96667 12.8338C7.63829 12.8338 7.46133 12.6945 7.45785 12.4435C7.45562 12.2 7.61844 12.05 7.90412 12.05C8.83042 12.0473 9.75696 12.05 10.684 12.05C11.5757 12.05 12.4676 12.05 13.3596 12.05C13.7111 12.05 13.8861 12.1848 13.8809 12.4463C13.8766 12.6975 13.7029 12.8335 13.3708 12.8338H13.3698ZM7.46207 10.04C7.47771 9.84002 7.59114 9.72002 7.78821 9.69227C7.88296 9.68284 7.97825 9.67991 8.0734 9.68352C9.55501 9.68352 11.0365 9.68352 12.518 9.68352C13.9994 9.68352 15.481 9.68352 16.9628 9.68352C17.0579 9.68352 17.1549 9.67827 17.248 9.69452C17.4436 9.72877 17.5821 9.86602 17.5545 10.052C17.5342 10.1898 17.4113 10.327 17.3021 10.43C17.2468 10.4823 17.1209 10.4678 17.0269 10.4678C14.0117 10.4694 10.9966 10.4694 7.98156 10.4678C7.89531 10.4705 7.80911 10.4607 7.72566 10.4385C7.53504 10.3798 7.44643 10.238 7.46207 10.04ZM17.1554 12.8305C16.5597 12.8393 15.9632 12.8393 15.3659 12.8305C15.1058 12.827 14.9474 12.6578 14.9529 12.4263C14.9583 12.1948 15.1149 12.0535 15.3875 12.049C15.6727 12.0445 15.9583 12.049 16.2433 12.049C16.5458 12.049 16.8486 12.0445 17.151 12.0505C17.3969 12.0555 17.5597 12.2073 17.5679 12.4228C17.5774 12.65 17.4118 12.8268 17.1554 12.8305ZM16.9727 8.14652C15.4835 8.14652 13.9935 8.14652 12.5026 8.14652C11.0299 8.14652 9.55724 8.14652 8.08456 8.14652C7.98076 8.1499 7.87685 8.14496 7.77381 8.13177C7.57525 8.09902 7.46927 7.97027 7.46207 7.77152C7.45462 7.56027 7.55887 7.42152 7.76662 7.37852C7.86055 7.36332 7.95575 7.35762 8.05081 7.36152C11.0223 7.36152 13.9938 7.36152 16.9653 7.36152C17.3825 7.36152 17.5751 7.49077 17.5684 7.76427C17.5612 8.02727 17.3788 8.14652 16.9722 8.14652H16.9727Z" fill="#9A86F3"/>
</g>
<defs>
<clipPath id="clip0_124_2">
<rect width="19" height="25" fill="white" transform="translate(3)"/>
</clipPath>
</defs>
</svg>
